<svg xmlns="http://www.w3.org/2000/svg" viewBox="0 0 330 330"><path d="M0 0h70v10H0zm90 0h10v10H90zm20 0h10v10h-10zm30 0h60v10h-60zm80 0h10v10h-10zm20 0h10v10h-10zm20 0h70v10h-70zM0 10h10v10H0zm60 0h10v10H60zm30 0h40v10H90zm60 0h10v10h-10zm20 0h50v10h-50zm70 0h10v10h-10zm20 0h10v10h-10zm60 0h10v10h-10zM0 20h10v10H0zm20 0h30v10H20zm40 0h10v10H60zm20 0h20v10H80zm60 0h20v10h-20zm40 0h20v10h-20zm30 0h40v10h-40zm50 0h10v10h-10zm20 0h30v10h-30zm40 0h10v10h-10zM0 30h10v10H0zm20 0h30v10H20zm40 0h10v10H60zm20 0h10v10H80zm20 0h10v10h-10zm50 0h10v10h-10zm20 0h20v10h-20zm40 0h10v10h-10zm20 0h20v10h-20zm30 0h10v10h-10zm20 0h30v10h-30zm40 0h10v10h-10zM0 40h10v10H0zm20 0h30v10H20zm40 0h10v10H60zm30 0h50v10H90zm90 0h10v10h-10zm30 0h30v10h-30zm50 0h10v10h-10zm20 0h30v10h-30zm40 0h10v10h-10zM0 50h10v10H0zm60 0h10v10H60zm40 0h10v10h-10zm20 0h10v10h-10zm20 0h10v10h-10zm30 0h40v10h-40zm50 0h10v10h-10zm20 0h10v10h-10zm20 0h10v10h-10zm60 0h10v10h-10zM0 60h70v10H0zm80 0h10v10H80zm20 0h10v10h-10zm20 0h10v10h-10zm20 0h10v10h-10zm20 0h10v10h-10zm20 0h10v10h-10zm20 0h10v10h-10zm20 0h10v10h-10zm20 0h10v10h-10zm20 0h70v10h-70zM100 70h10v10h-10zm30 0h30v10h-30zm50 0h20v10h-20zm40 0h20v10h-20zM30 80h20v10H30zm30 0h20v10H60zm50 0h20v10h-20zm30 0h20v10h-20zm50 0h10v10h-10zm30 0h20v10h-20zm70 0h20v10h-20zM20 90h40v10H20zm60 0h30v10H80zm60 0h10v10h-10zm20 0h20v10h-20zm30 0h20v10h-20zm40 0h30v10h-30zm40 0h50v10h-50zM10 100h10v10H10zm40 0h20v10H50zm30 0h10v10H80zm40 0h10v10h-10zm30 0h10v10h-10zm30 0h10v10h-10zm30 0h10v10h-10zm20 0h10v10h-10zm20 0h10v10h-10zm20 0h10v10h-10zm20 0h40v10h-40zM10 110h40v10H10zm60 0h20v10H70zm50 0h60v10h-60zm70 0h10v10h-10zm70 0h60v10h-60zM0 120h10v10H0zm20 0h20v10H20zm30 0h30v10H50zm50 0h10v10h-10zm20 0h10v10h-10zm20 0h10v10h-10zm30 0h10v10h-10zm30 0h30v10h-30zm40 0h10v10h-10zm20 0h20v10h-20zm30 0h10v10h-10zm20 0h20v10h-20zM0 130h10v10H0zm50 0h10v10H50zm20 0h20v10H70zm50 0h10v10h-10zm20 0h10v10h-10zm60 0h40v10h-40zm50 0h10v10h-10zm20 0h10v10h-10zm20 0h30v10h-30zM20 140h10v10H20zm20 0h50v10H40zm60 0h10v10h-10zm20 0h10v10h-10zm20 0h10v10h-10zm20 0h10v10h-10zm20 0h20v10h-20zm60 0h10v10h-10zm20 0h40v10h-40zM0 150h50v10H0zm80 0h10v10H80zm50 0h10v10h-10zm30 0h20v10h-20zm30 0h10v10h-10zm60 0h10v10h-10zm30 0h40v10h-40zM10 160h30v10H10zm50 0h10v10H60zm60 0h10v10h-10zm20 0h20v10h-20zm30 0h10v10h-10zm30 0h10v10h-10zm30 0h10v10h-10zm20 0h50v10h-50zm60 0h10v10h-10zM10 170h20v10H10zm40 0h10v10H50zm20 0h20v10H70zm30 0h60v10h-60zm90 0h20v10h-20zm30 0h10v10h-10zm20 0h10v10h-10zm20 0h40v10h-40zm50 0h20v10h-20zM10 180h10v10H10zm40 0h30v10H50zm70 0h10v10h-10zm20 0h20v10h-20zm30 0h10v10h-10zm20 0h10v10h-10zm20 0h10v10h-10zm20 0h10v10h-10zm20 0h20v10h-20zm40 0h20v10h-20zm30 0h10v10h-10zM0 190h60v10H0zm80 0h50v10H80zm90 0h20v10h-20zm50 0h40v10h-40zm70 0h20v10h-20zM10 200h10v10H10zm20 0h10v10H30zm20 0h20v10H50zm30 0h10v10H80zm20 0h10v10h-10zm20 0h60v10h-60zm80 0h10v10h-10zm40 0h10v10h-10zm30 0h10v10h-10zm20 0h10v10h-10zm20 0h20v10h-20zM0 210h20v10H0zm40 0h10v10H40zm30 0h30v10H70zm40 0h40v10h-40zm60 0h30v10h-30zm70 0h20v10h-20zm40 0h10v10h-10zm20 0h20v10h-20zM0 220h10v10H0zm20 0h20v10H20zm40 0h10v10H60zm30 0h10v10H90zm30 0h20v10h-20zm40 0h20v10h-20zm40 0h10v10h-10zm30 0h20v10h-20zm30 0h20v10h-20zm30 0h40v10h-40zM0 230h10v10H0zm70 0h70v10H70zm90 0h30v10h-30zm40 0h10v10h-10zm20 0h20v10h-20zm60 0h10v10h-10zm20 0h30v10h-30zM0 240h20v10H0zm40 0h50v10H40zm90 0h20v10h-20zm40 0h40v10h-40zm60 0h60v10h-60zm80 0h20v10h-20zM80 250h40v10H80zm60 0h20v10h-20zm30 0h50v10h-50zm70 0h10v10h-10zm40 0h20v10h-20zm30 0h10v10h-10zM0 260h70v10H0zm80 0h10v10H80zm20 0h10v10h-10zm30 0h10v10h-10zm20 0h20v10h-20zm30 0h20v10h-20zm50 0h20v10h-20zm30 0h10v10h-10zm20 0h10v10h-10zM0 270h10v10H0zm60 0h10v10H60zm30 0h10v10H90zm20 0h20v10h-20zm30 0h10v10h-10zm20 0h10v10h-10zm20 0h20v10h-20zm30 0h20v10h-20zm30 0h10v10h-10zm40 0h40v10h-40zM0 280h10v10H0zm20 0h30v10H20zm40 0h10v10H60zm20 0h10v10H80zm20 0h10v10h-10zm30 0h10v10h-10zm20 0h10v10h-10zm30 0h10v10h-10zm20 0h100v10H200zm110 0h10v10h-10zM0 290h10v10H0zm20 0h30v10H20zm40 0h10v10H60zm20 0h40v10H80zm50 0h20v10h-20zm30 0h30v10h-30zm40 0h30v10h-30zm40 0h20v10h-20zm30 0h10v10h-10zm40 0h10v10h-10zM0 300h10v10H0zm20 0h30v10H20zm40 0h10v10H60zm60 0h20v10h-20zm40 0h10v10h-10zm20 0h20v10h-20zm30 0h20v10h-20zm70 0h10v10h-10zm30 0h20v10h-20zM0 310h10v10H0zm60 0h10v10H60zm60 0h10v10h-10zm30 0h10v10h-10zm20 0h60v10h-60zm80 0h20v10h-20zm40 0h40v10h-40zM0 320h70v10H0zm120 0h60v10h-60zm80 0h10v10h-10zm20 0h30v10h-30zm60 0h20v10h-20z"/></svg>